# xmcd
#
# Track frame offsets:
#  160
#  11735
#  26862
#  42992
#  54692
#  67830
#  77392
#  92037
#  105075
#  117937
#
# Disc length: 1751 seconds
#
# Revision: 0
# Processed by: cddbd v1.4PL0 Copyright (c) Steve Scherf et al.
# Submitted via: AltoMP3_Maker 3.0
#
DISCID=7206d50a
DTITLE=Sammi Smith - Here Comes That Rainbow Again
DYEAR=1900
DGENRE=
TTITLE0=Gonna Lay Me Down Beside My Memories
TTITLE1=Savannah Moon
TTITLE2=Cloudy Days
TTITLE3=Mem'ryville
TTITLE4=Here Comes That Rainbow Again
TTITLE5=I'll Be Around
TTITLE6=The Way It Is
TTITLE7=Slow Dancin'
TTITLE8=Waltz Across Texas
TTITLE9=I'd Do It Over Again
EXTD=
EXTT0=
EXTT1=
EXTT2=
EXTT3=
EXTT4=
EXTT5=
EXTT6=
EXTT7=
EXTT8=
EXTT9=
PLAYORDER=
